REM DIRINDEX 1\4,1\2\5,1\2\6,1\3\7,1\3\8,1\3\9,1\3\10
REM DIRNAME folder01,folder02,folder03,folder04,folder05,folder06,folder07,folder08,folder09,folder10
TITLE ""
FILE "DISC2Track20.mp3" MP3
  TRACK 01 AUDIO
    TITLE "0:"
    INDEX 01 00:00:00
  TRACK 02 AUDIO
    TITLE "7:cjc107_1701"
    INDEX 01 00:00:01
  TRACK 03 AUDIO
    TITLE "0:"
    INDEX 01 00:02:61
  TRACK 04 AUDIO
    TITLE "8:cjc107_1702"
    INDEX 01 00:03:74
  TRACK 05 AUDIO
    TITLE "0:"
    INDEX 01 00:05:36
  TRACK 06 AUDIO
    TITLE "9:cjc107_1703"
    INDEX 01 00:05:44
  TRACK 07 AUDIO
    TITLE "0:"
    INDEX 01 00:08:24
  TRACK 08 AUDIO
    TITLE "8:cjc107_1704"
    INDEX 01 00:08:73
  TRACK 09 AUDIO
    TITLE "0:"
    INDEX 01 00:10:29
  TRACK 10 AUDIO
    TITLE "9:cjc107_1705"
    INDEX 01 00:10:31
  TRACK 11 AUDIO
    TITLE "0:"
    INDEX 01 00:12:61
  TRACK 12 AUDIO
    TITLE "8:cjc107_1706"
    INDEX 01 00:13:35
  TRACK 13 AUDIO
    TITLE "0:"
    INDEX 01 00:14:72
  TRACK 14 AUDIO
    TITLE "9:cjc107_1707"
    INDEX 01 00:15:09
  TRACK 15 AUDIO
    TITLE "0:"
    INDEX 01 00:16:38
  TRACK 16 AUDIO
    TITLE "8:cjc107_1708"
    INDEX 01 00:17:21
  TRACK 17 AUDIO
    TITLE "0:"
    INDEX 01 00:18:72
  TRACK 18 AUDIO
    TITLE "9:cjc107_1709"
    INDEX 01 00:19:01
  TRACK 19 AUDIO
    TITLE "0:"
    INDEX 01 00:21:33
  TRACK 20 AUDIO
    TITLE "8:cjc107_1710"
    INDEX 01 00:22:09
  TRACK 21 AUDIO
    TITLE "0:"
    INDEX 01 00:23:34
  TRACK 22 AUDIO
    TITLE "9:cjc107_1711"
    INDEX 01 00:23:38
  TRACK 23 AUDIO
    TITLE "0:"
    INDEX 01 00:26:20
  TRACK 24 AUDIO
    TITLE "8:cjc107_1712"
    INDEX 01 00:26:69
  TRACK 25 AUDIO
    TITLE "0:"
    INDEX 01 00:28:13
  TRACK 26 AUDIO
    TITLE "9:cjc107_1713"
    INDEX 01 00:28:17
  TRACK 27 AUDIO
    TITLE "0:"
    INDEX 01 00:30:48
  TRACK 28 AUDIO
    TITLE "8:cjc107_1714"
    INDEX 01 00:31:20
  TRACK 29 AUDIO
    TITLE "0:"
    INDEX 01 00:32:47
  TRACK 30 AUDIO
    TITLE "9:cjc107_1715"
    INDEX 01 00:32:48
  TRACK 31 AUDIO
    TITLE "0:"
    INDEX 01 00:34:42
  TRACK 32 AUDIO
    TITLE "8:cjc107_1716"
    INDEX 01 00:35:15
  TRACK 33 AUDIO
    TITLE "0:"
    INDEX 01 00:36:17
  TRACK 34 AUDIO
    TITLE "9:cjc107_1717"
    INDEX 01 00:36:25
  TRACK 35 AUDIO
    TITLE "0:"
    INDEX 01 00:38:49
  TRACK 36 AUDIO
    TITLE "8:cjc107_1718"
    INDEX 01 00:39:25
  TRACK 37 AUDIO
    TITLE "0:"
    INDEX 01 00:40:40
  TRACK 38 AUDIO
    TITLE "9:cjc107_1719"
    INDEX 01 00:40:52
  TRACK 39 AUDIO
    TITLE "0:"
    INDEX 01 00:42:41
  TRACK 40 AUDIO
    TITLE "8:cjc107_1720"
    INDEX 01 00:43:11
  TRACK 41 AUDIO
    TITLE "0:"
    INDEX 01 00:44:26
  TRACK 42 AUDIO
    TITLE "9:cjc107_1721"
    INDEX 01 00:44:28
  TRACK 43 AUDIO
    TITLE "0:"
    INDEX 01 00:45:73
  TRACK 44 AUDIO
    TITLE "8:cjc107_1722"
    INDEX 01 00:46:45
  TRACK 45 AUDIO
    TITLE "0:"
    INDEX 01 00:47:68
  TRACK 46 AUDIO
    TITLE "9:cjc107_1723"
    INDEX 01 00:47:72
  TRACK 47 AUDIO
    TITLE "0:"
    INDEX 01 00:48:73
  TRACK 48 AUDIO
    TITLE "8:cjc107_1724"
    INDEX 01 00:49:47
  TRACK 49 AUDIO
    TITLE "0:"
    INDEX 01 00:51:01
  TRACK 50 AUDIO
    TITLE "9:cjc107_1725"
    INDEX 01 00:51:13
  TRACK 51 AUDIO
    TITLE "0:"
    INDEX 01 00:53:33
  TRACK 52 AUDIO
    TITLE "8:cjc107_1726"
    INDEX 01 00:54:09
  TRACK 53 AUDIO
    TITLE "0:"
    INDEX 01 00:55:22
  TRACK 54 AUDIO
    TITLE "9:cjc107_1727"
    INDEX 01 00:55:28
  TRACK 55 AUDIO
    TITLE "0:"
    INDEX 01 00:57:72
  TRACK 56 AUDIO
    TITLE "10:cjc107_1728"
    INDEX 01 00:59:49
  TRACK 57 AUDIO
    TITLE "10:cjc107_1729"
    INDEX 01 01:04:41
  TRACK 58 AUDIO
    TITLE "10:cjc107_1730"
    INDEX 01 01:11:17
  TRACK 59 AUDIO
    TITLE "10:cjc107_1731"
    INDEX 01 01:18:06
  TRACK 60 AUDIO
    TITLE "10:cjc107_1732"
    INDEX 01 01:23:34
  TRACK 61 AUDIO
    TITLE "10:cjc107_1733"
    INDEX 01 01:32:08
  TRACK 62 AUDIO
    TITLE "0:"
    INDEX 01 01:36:62
